<svg width="24" height="24" viewBox="0 0 24 24" fill="none" xmlns="http://www.w3.org/2000/svg">
<path fill-rule="evenodd" clip-rule="evenodd" d="M2 9C2 5.68629 4.68629 3 8 3H8.5C11.0329 3 13.1657 4.71195 13.8046 7.04228C14.0055 7.01428 14.2091 7 14.4142 7H15.3431C19.0196 7 22 9.98037 22 13.6569V14C22 17.866 18.866 21 15 21H11C6.02944 21 2 16.9706 2 12V9ZM10.5883 7H13.2743C14.0373 7 14.5192 7.82015 14.1479 8.4867L13.9474 8.84663C13.576 9.51318 14.0579 10.3333 14.8209 10.3333H16.3072C17.2344 10.3333 17.6623 11.4858 16.9599 12.0909L10.8086 17.3905C9.96478 18.1175 8.74342 17.1284 9.27923 16.1519L9.83021 15.1477C10.1959 14.4813 9.71367 13.6667 8.95351 13.6667H7.7716C6.99314 13.6667 6.5132 12.8164 6.91546 12.1499L9.73213 7.48326C9.91316 7.18333 10.2379 7 10.5883 7Z" fill="#004DE6"/>
</svg>
