<svg width="142" height="24" viewBox="0 0 142 24" fill="none" xmlns="http://www.w3.org/2000/svg">
<g clip-path="url(#clip0_622_3381)">
<path fill-rule="evenodd" clip-rule="evenodd" d="M2 9C2 5.68629 4.68629 3 8 3H8.5C11.0329 3 13.1657 4.71195 13.8046 7.04228C14.0055 7.01428 14.2091 7 14.4142 7H15.3431C19.0196 7 22 9.98037 22 13.6569V14C22 17.866 18.866 21 15 21H11C6.02944 21 2 16.9706 2 12V9ZM10.5883 7H13.2743C14.0373 7 14.5192 7.82015 14.1479 8.4867L13.9474 8.84663C13.576 9.51318 14.0579 10.3333 14.8209 10.3333H16.3072C17.2344 10.3333 17.6623 11.4858 16.9599 12.0909L10.8086 17.3905C9.96478 18.1175 8.74342 17.1284 9.27923 16.1519L9.83021 15.1477C10.1959 14.4813 9.71367 13.6667 8.95351 13.6667H7.7716C6.99314 13.6667 6.5132 12.8164 6.91546 12.1499L9.73213 7.48326C9.91316 7.18333 10.2379 7 10.5883 7Z" fill="#004DE6"/>
<path d="M33.688 21V6.768H28.24V3.72H42.4V6.768H36.952V21H33.688ZM46.2409 21.36C45.3129 21.36 44.5249 21.184 43.8769 20.832C43.2369 20.472 42.7489 19.996 42.4129 19.404C42.0849 18.804 41.9209 18.144 41.9209 17.424C41.9209 16.824 42.0129 16.276 42.1969 15.78C42.3809 15.284 42.6769 14.848 43.0849 14.472C43.5009 14.088 44.0569 13.768 44.7529 13.512C45.2329 13.336 45.8049 13.18 46.4689 13.044C47.1329 12.908 47.8849 12.78 48.7249 12.66C49.5649 12.532 50.4889 12.392 51.4969 12.24L50.3209 12.888C50.3209 12.12 50.1369 11.556 49.7689 11.196C49.4009 10.836 48.7849 10.656 47.9209 10.656C47.4409 10.656 46.9409 10.772 46.4209 11.004C45.9009 11.236 45.5369 11.648 45.3289 12.24L42.3769 11.304C42.7049 10.232 43.3209 9.36 44.2249 8.688C45.1289 8.016 46.3609 7.68 47.9209 7.68C49.0649 7.68 50.0809 7.856 50.9689 8.208C51.8569 8.56 52.5289 9.168 52.9849 10.032C53.2409 10.512 53.3929 10.992 53.4409 11.472C53.4889 11.952 53.5129 12.488 53.5129 13.08V21H50.6569V18.336L51.0649 18.888C50.4329 19.76 49.7489 20.392 49.0129 20.784C48.2849 21.168 47.3609 21.36 46.2409 21.36ZM46.9369 18.792C47.5369 18.792 48.0409 18.688 48.4489 18.48C48.8649 18.264 49.1929 18.02 49.4329 17.748C49.6809 17.476 49.8489 17.248 49.9369 17.064C50.1049 16.712 50.2009 16.304 50.2249 15.84C50.2569 15.368 50.2729 14.976 50.2729 14.664L51.2329 14.904C50.2649 15.064 49.4809 15.2 48.8809 15.312C48.2809 15.416 47.7969 15.512 47.4289 15.6C47.0609 15.688 46.7369 15.784 46.4569 15.888C46.1369 16.016 45.8769 16.156 45.6769 16.308C45.4849 16.452 45.3409 16.612 45.2449 16.788C45.1569 16.964 45.1129 17.16 45.1129 17.376C45.1129 17.672 45.1849 17.928 45.3289 18.144C45.4809 18.352 45.6929 18.512 45.9649 18.624C46.2369 18.736 46.5609 18.792 46.9369 18.792ZM57.7131 21V8.088C57.7131 7.76 57.7211 7.388 57.7371 6.972C57.7531 6.556 57.8171 6.136 57.9291 5.712C58.0491 5.288 58.2651 4.904 58.5771 4.56C58.9771 4.112 59.4091 3.808 59.8731 3.648C60.3451 3.48 60.8011 3.392 61.2411 3.384C61.6811 3.368 62.0571 3.36 62.3691 3.36H63.9771V6H62.4891C61.9771 6 61.5971 6.132 61.3491 6.396C61.1011 6.652 60.9771 6.96 60.9771 7.32V21H57.7131ZM55.6731 10.56V8.04H63.9771V10.56H55.6731ZM66.4971 6.24V3.36H69.7611V6.24H66.4971ZM66.4971 21V8.04H69.7611V21H66.4971ZM80.7835 21.36C79.0555 21.36 77.5635 20.984 76.3075 20.232C75.0595 19.48 74.0955 18.428 73.4155 17.076C72.7435 15.724 72.4075 14.152 72.4075 12.36C72.4075 10.568 72.7435 8.996 73.4155 7.644C74.0955 6.292 75.0595 5.24 76.3075 4.488C77.5635 3.736 79.0555 3.36 80.7835 3.36C82.7675 3.36 84.4315 3.852 85.7755 4.836C87.1275 5.82 88.0795 7.152 88.6315 8.832L85.3435 9.744C85.0235 8.696 84.4835 7.884 83.7235 7.308C82.9635 6.724 81.9835 6.432 80.7835 6.432C79.6875 6.432 78.7715 6.676 78.0355 7.164C77.3075 7.652 76.7595 8.34 76.3915 9.228C76.0235 10.116 75.8395 11.16 75.8395 12.36C75.8395 13.56 76.0235 14.604 76.3915 15.492C76.7595 16.38 77.3075 17.068 78.0355 17.556C78.7715 18.044 79.6875 18.288 80.7835 18.288C81.9835 18.288 82.9635 17.996 83.7235 17.412C84.4835 16.828 85.0235 16.016 85.3435 14.976L88.6315 15.888C88.0795 17.568 87.1275 18.9 85.7755 19.884C84.4315 20.868 82.7675 21.36 80.7835 21.36ZM91.5138 21V3.36H94.7778V21H91.5138ZM104.207 21.36C102.903 21.36 101.759 21.068 100.775 20.484C99.7913 19.9 99.0233 19.096 98.4713 18.072C97.9273 17.04 97.6553 15.856 97.6553 14.52C97.6553 13.168 97.9353 11.98 98.4953 10.956C99.0553 9.924 99.8273 9.12 100.811 8.544C101.795 7.968 102.927 7.68 104.207 7.68C105.511 7.68 106.655 7.972 107.639 8.556C108.631 9.14 109.403 9.948 109.955 10.98C110.507 12.004 110.783 13.184 110.783 14.52C110.783 15.864 110.503 17.052 109.943 18.084C109.391 19.108 108.619 19.912 107.627 20.496C106.643 21.072 105.503 21.36 104.207 21.36ZM104.207 18.312C105.255 18.312 106.035 17.96 106.547 17.256C107.067 16.544 107.327 15.632 107.327 14.52C107.327 13.368 107.063 12.448 106.535 11.76C106.015 11.072 105.239 10.728 104.207 10.728C103.495 10.728 102.911 10.888 102.455 11.208C101.999 11.528 101.659 11.972 101.435 12.54C101.219 13.108 101.111 13.768 101.111 14.52C101.111 15.68 101.371 16.604 101.891 17.292C102.419 17.972 103.191 18.312 104.207 18.312ZM118.246 21.384C117.23 21.384 116.402 21.212 115.762 20.868C115.122 20.524 114.622 20.088 114.262 19.56C113.91 19.032 113.658 18.484 113.506 17.916C113.354 17.34 113.262 16.816 113.23 16.344C113.198 15.872 113.182 15.528 113.182 15.312V8.04H116.494V14.16C116.494 14.456 116.51 14.836 116.542 15.3C116.574 15.756 116.674 16.216 116.842 16.68C117.01 17.144 117.282 17.532 117.658 17.844C118.042 18.156 118.582 18.312 119.278 18.312C119.558 18.312 119.858 18.268 120.178 18.18C120.498 18.092 120.798 17.924 121.078 17.676C121.358 17.42 121.586 17.048 121.762 16.56C121.946 16.064 122.038 15.416 122.038 14.616L123.91 15.504C123.91 16.528 123.702 17.488 123.286 18.384C122.87 19.28 122.242 20.004 121.402 20.556C120.57 21.108 119.518 21.384 118.246 21.384ZM122.446 21V16.704H122.038V8.04H125.326V21H122.446ZM133.936 21.36C132.744 21.36 131.7 21.06 130.804 20.46C129.908 19.86 129.208 19.044 128.704 18.012C128.208 16.98 127.96 15.816 127.96 14.52C127.96 13.2 128.212 12.028 128.716 11.004C129.228 9.972 129.944 9.16 130.864 8.568C131.784 7.976 132.864 7.68 134.104 7.68C135.336 7.68 136.372 7.98 137.212 8.58C138.052 9.18 138.688 9.996 139.12 11.028C139.552 12.06 139.768 13.224 139.768 14.52C139.768 15.816 139.548 16.98 139.108 18.012C138.676 19.044 138.028 19.86 137.164 20.46C136.3 21.06 135.224 21.36 133.936 21.36ZM134.464 18.456C135.192 18.456 135.772 18.292 136.204 17.964C136.644 17.636 136.96 17.176 137.152 16.584C137.344 15.992 137.44 15.304 137.44 14.52C137.44 13.736 137.344 13.048 137.152 12.456C136.96 11.864 136.652 11.404 136.228 11.076C135.812 10.748 135.264 10.584 134.584 10.584C133.856 10.584 133.256 10.764 132.784 11.124C132.32 11.476 131.976 11.952 131.752 12.552C131.528 13.144 131.416 13.8 131.416 14.52C131.416 15.248 131.524 15.912 131.74 16.512C131.956 17.104 132.288 17.576 132.736 17.928C133.184 18.28 133.76 18.456 134.464 18.456ZM137.44 21V12.12H137.032V3.72H140.32V21H137.44Z" fill="#12131A"/>
</g>
<defs>
<clipPath id="clip0_622_3381">
<rect width="142" height="24" fill="white"/>
</clipPath>
</defs>
</svg>
